<svg xmlns="http://www.w3.org/2000/svg" xmlns:xlink="http://www.w3.org/1999/xlink" width="65" height="65" viewBox="0 0 65 65">
  <defs>
    <clipPath id="clip-fixedBtn-2">
      <rect width="65" height="65"/>
    </clipPath>
  </defs>
  <g id="fixedBtn-2" clip-path="url(#clip-fixedBtn-2)">
    <g id="Group_722" data-name="Group 722" transform="translate(9284.176 -1904.115)">
      <path id="Exclusion_9" data-name="Exclusion 9" d="M32.642,65h0A15.535,15.535,0,0,1,26.7,63.75,14.4,14.4,0,0,1,21.1,64.936c-5.626,0-11.029-3.727-15.215-10.5A39.906,39.906,0,0,1,0,34.7a17.928,17.928,0,0,1,4.848-12.7,16.367,16.367,0,0,1,11.827-4.826A20.951,20.951,0,0,1,25,18.987c.4-.988.809-1.967,1.215-2.907l-.024,0c-.126,0-.259,0-.4,0-1.914,0-6.757-.376-10.382-3.86-4.492-4.319-4-10.565-4-10.627A1.827,1.827,0,0,1,13.062.019S13.31,0,13.726,0A15.307,15.307,0,0,1,24.109,3.865a13.567,13.567,0,0,1,3.915,8.275,59.411,59.411,0,0,1,4.65-8.262,1.769,1.769,0,0,1,1.374-.621,1.634,1.634,0,0,1,.662.135L39.471,5.52a.813.813,0,0,1,.547.616.8.8,0,0,1-.4.708,48.746,48.746,0,0,0-5.952,5.048,51.418,51.418,0,0,0-5.447,7.217,23.826,23.826,0,0,1,9.222-2.022,15.1,15.1,0,0,1,11.537,4.88c2.9,3.194,4.428,7.6,4.428,12.737a41,41,0,0,1-5.6,19.757,25.357,25.357,0,0,1-6.539,7.534A14.334,14.334,0,0,1,32.642,65ZM29.929,47.865h1.045v1.974l-.059,4.309a.5.5,0,0,0,.043.261c.03.039.123.059.276.059h2.35a.594.594,0,0,0,.291-.043c.049-.03.074-.123.074-.276l-.059-4.309V47.865h2.1l3.657.059c.167,0,.264-.017.3-.052A.432.432,0,0,0,40,47.6V45.428c0-.131-.014-.2-.043-.232s-.131-.059-.3-.059l-3.744.059H33.89v-3.57h1.03l3.338.058a.439.439,0,0,0,.267-.05.515.515,0,0,0,.052-.3V39.217a.5.5,0,0,0-.043-.261c-.03-.039-.123-.058-.276-.058l-3.338.058H33.89v-3h1.683l3.6.058a.5.5,0,0,0,.261-.043.5.5,0,0,0,.043-.276V33.544a.523.523,0,0,0-.03-.232c-.028-.038-.118-.057-.274-.057l-3.323.057c.393-.711.9-1.721,1.538-3.091a3.654,3.654,0,0,1,.565-.986.678.678,0,0,0,.306-.508c0-.163-.122-.3-.363-.406a12.332,12.332,0,0,0-2.7-.958,8.911,8.911,0,0,1-.421,1.583,40.514,40.514,0,0,1-1.929,4.366H30.074l-3.6-.057c-.212,0-.319.1-.319.289v2.148a.5.5,0,0,0,.043.261c.029.039.121.058.276.058l3.6-.058h.9v3H30.5L27.158,38.9a.5.5,0,0,0-.261.043c-.039.03-.059.123-.059.276v2.119a.589.589,0,0,0,.043.289c.029.039.121.058.276.058l3.338-.058h.478V45.2H29.929l-3.686-.059c-.222,0-.334.1-.334.291V47.6a.485.485,0,0,0,.045.261.458.458,0,0,0,.289.059ZM14.374,47.5c-.077,0-.125.093-.144.276a17.082,17.082,0,0,1-1.394,4.876.753.753,0,0,0-.072.261c0,.116.1.238.3.363l1.466.74a.893.893,0,0,0,.3.1c.088,0,.166-.073.232-.217a21.944,21.944,0,0,0,1.422-5.5.453.453,0,0,0,.013-.115c0-.156-.133-.265-.406-.334l-1.392-.378A1.714,1.714,0,0,0,14.374,47.5Zm4.528.247a1.38,1.38,0,0,0-.217.028l-1.19.174c-.244.039-.363.12-.363.247,0,.029.005.088.013.174.289,1.82.48,3.47.567,4.9.02.195.068.289.145.289a2.935,2.935,0,0,0,.319-.057l1.29-.291c.261-.066.393-.188.393-.363a.457.457,0,0,0-.015-.115,30.034,30.034,0,0,0-.71-4.672C19.1,47.857,19.019,47.749,18.9,47.749Zm2.989-.349c-.019,0-.105.013-.291.043l-1.045.217c-.253.059-.376.14-.376.247a.968.968,0,0,0,.043.232,29.01,29.01,0,0,1,1,4.237c.028.2.092.3.189.3a1.277,1.277,0,0,0,.274-.059l1.133-.333c.278-.078.42-.176.42-.291a.836.836,0,0,0-.028-.174,29.653,29.653,0,0,0-1.1-4.165C22.059,47.485,21.988,47.4,21.891,47.4Zm2.8-.348c-.02,0-.148.028-.333.072l-.914.2c-.212.058-.319.141-.319.246a.741.741,0,0,0,.059.232,22.607,22.607,0,0,1,1.132,3.5c.028.164.077.247.144.247a2.226,2.226,0,0,0,.319-.087l1.1-.334c.231-.066.348-.164.348-.289a.777.777,0,0,0-.057-.232A13.052,13.052,0,0,0,24.895,47.3C24.825,47.133,24.759,47.052,24.691,47.052Zm-6.616-.61h3.655l3.019.059a.594.594,0,0,0,.291-.043c.048-.038.072-.143.072-.319l-.059-2.9V38.115l.059-2.9a.427.427,0,0,0-.059-.276c-.028-.039-.127-.058-.3-.058l-2.756.058c.472-.792.911-1.582,1.305-2.352a1.873,1.873,0,0,1,.567-.769.607.607,0,0,0,.3-.478c0-.205-.214-.485-.654-.856a2.2,2.2,0,0,0-1.073-.625.743.743,0,0,0-.334.089,2,2,0,0,1-.682.087h-2.35l.159-.393a3.131,3.131,0,0,1,.582-1.088.549.549,0,0,0,.246-.391c0-.145-.181-.286-.537-.421a23.056,23.056,0,0,0-2.467-.521,7.278,7.278,0,0,1-.537,2.016,19.48,19.48,0,0,1-4.062,6.413,4.054,4.054,0,0,1,1.16,1.247c.232.415.412.625.537.625.068,0,.253-.166.567-.508v6.224l-.059,2.9a.7.7,0,0,0,.043.3c.029.039.121.059.276.059ZM29.406,27.567a1.035,1.035,0,0,0-.289.059l-1.814.782c-.2.086-.3.169-.3.247a.554.554,0,0,0,.072.217,20.028,20.028,0,0,1,1.959,3.788c.067.173.145.261.232.261a1.28,1.28,0,0,0,.363-.115l1.87-.842c.245-.1.364-.2.364-.319a.675.675,0,0,0-.059-.232,21.991,21.991,0,0,0-2.089-3.655A.374.374,0,0,0,29.406,27.567Zm-6.674,16.7H20.977V41.6h1.755v2.669Zm-4,0h-1.7V41.6h1.7v2.669Zm4-4.715H20.977V37.142h1.755v2.409Zm-4,0h-1.7V37.142h1.7v2.409Zm.478-4.613H16.348a22.649,22.649,0,0,0,1.7-2.7h2.582a23.434,23.434,0,0,1-1.422,2.7Z" transform="translate(-9280.176 1904.115)" fill="#fff" stroke="rgba(0,0,0,0)" stroke-miterlimit="10" stroke-width="1"/>
    </g>
  </g>
</svg>
