<svg xmlns="http://www.w3.org/2000/svg" xmlns:xlink="http://www.w3.org/1999/xlink" width="65" height="65" viewBox="0 0 65 65">
  <defs>
    <clipPath id="clip-fixedBtn-3">
      <rect width="65" height="65"/>
    </clipPath>
  </defs>
  <g id="fixedBtn-3" clip-path="url(#clip-fixedBtn-3)">
    <g id="Group_723" data-name="Group 723" transform="translate(9286 -1988.5)">
      <path id="Exclusion_10" data-name="Exclusion 10" d="M3.211,65a3.233,3.233,0,0,1-1.468-.354A3.2,3.2,0,0,1,0,61.784V1.606A1.608,1.608,0,0,1,1.606,0H44.548a1.609,1.609,0,0,1,1.608,1.606V61.784A3.215,3.215,0,0,1,41.069,64.4L23.077,51.5,5.084,64.4A3.188,3.188,0,0,1,3.211,65ZM21.495,21.864V34.632l-.059,3.41a.548.548,0,0,0,.043.276c.03.039.123.059.276.059h2.35a.548.548,0,0,0,.276-.043c.039-.03.059-.125.059-.291V36.591h9l3.6.059c.2,0,.3-.107.3-.319V34.211c0-.212-.1-.319-.3-.319l-3.6.059H31.361V30.468h1.045l3.438.057c.156,0,.249-.016.282-.05s.052-.121.052-.269V28.147a.5.5,0,0,0-.043-.261c-.038-.039-.133-.058-.291-.058l-3.438.058H31.361V24.707h1.015l3.44.058a.568.568,0,0,0,.289-.043c.049-.039.074-.141.074-.3v-2a.548.548,0,0,0-.043-.276c-.038-.048-.143-.072-.319-.072l-3.44.057H31.361V18.991h1.872l3.453.059a.5.5,0,0,0,.261-.043c.038-.028.057-.118.057-.276V16.612a.491.491,0,0,0-.043-.262c-.028-.038-.118-.057-.274-.057l-3.453.057H31.839c.192-.393.52-1.151,1-2.32a3.59,3.59,0,0,1,.654-1.162.747.747,0,0,0,.333-.537c0-.174-.17-.33-.506-.465a20.939,20.939,0,0,0-2.786-.623A9.521,9.521,0,0,1,30,13.4c-.4,1.145-.8,2.136-1.175,2.945H25.006c.29-.573.637-1.333,1.03-2.263a9.952,9.952,0,0,1,.7-1.508c.231-.212.348-.394.348-.538s-.181-.285-.537-.42c-.726-.194-1.673-.394-2.815-.6a13.725,13.725,0,0,1-.6,2.626,18.965,18.965,0,0,1-3.106,5.818V17.149a.486.486,0,0,0-.043-.261c-.029-.039-.121-.059-.276-.059l-2.465.059V15.364a12.369,12.369,0,0,1,.174-2.989,1.747,1.747,0,0,0,.189-.623c0-.193-.161-.306-.48-.334-.88-.106-1.929-.174-3.119-.2a30.135,30.135,0,0,1,.232,4.207v1.466H13.7l-2.947-.059a.5.5,0,0,0-.261.043c-.039.029-.058.121-.058.276v2.263a.548.548,0,0,0,.043.276c.03.039.123.058.276.058l2.947-.058h.537v5.5c-.5.154-.928.271-1.277.348-.9.231-1.823.422-2.728.567.192,1.237.377,2.223.552,2.93.056.241.188.363.391.363a.805.805,0,0,0,.48-.2c.47-.236.788-.383.971-.45l1.611-.465v5.934a1.247,1.247,0,0,1-.145.712.778.778,0,0,1-.623.187,24.439,24.439,0,0,1-2.554-.115,8.276,8.276,0,0,1,.8,2.248,2.049,2.049,0,0,0,.262.784,1.506,1.506,0,0,0,.869.145,6.516,6.516,0,0,0,3.468-.623,1.935,1.935,0,0,0,.74-.988,5.978,5.978,0,0,0,.217-1.87l-.028-6.007V27.232l1.9-.769a2.312,2.312,0,0,0,.667-.319.747.747,0,0,0,.174-.58v-.378a18.565,18.565,0,0,1,.117-2.046c-.732.322-1.695.688-2.858,1.088V19.688c.74.012,1.272.026,1.727.043l.739.015H19.8a15.375,15.375,0,0,1-1.073,1.218,7.036,7.036,0,0,1,1.16,1.566c.216.362.363.538.451.538.115,0,.315-.166.593-.495l.563-.706ZM28.531,33.95H24.44V30.468h4.092V33.95Zm0-6.064H24.44V24.707h4.092v3.179Zm0-5.761H24.44V18.991h4.092v3.134Z" transform="translate(-9277 1988.5)" fill="#fff"/>
    </g>
  </g>
</svg>
