<svg xmlns="http://www.w3.org/2000/svg" xmlns:xlink="http://www.w3.org/1999/xlink" width="55" height="55" viewBox="0 0 55 55">
  <defs>
    <clipPath id="clip-fixedBtn-1">
      <rect width="55" height="55"/>
    </clipPath>
  </defs>
  <g id="fixedBtn-1" clip-path="url(#clip-fixedBtn-1)">
    <g id="Group_721" data-name="Group 721" transform="translate(9282.764 -1826)">
      <g id="向量圖智慧型物件_拷貝_5" data-name="向量圖智慧型物件 拷貝 5" transform="translate(-9281.764 1827)">
        <g id="向量圖智慧型物件_拷貝_5-2" data-name="向量圖智慧型物件 拷貝 5" transform="translate(0 0)">
          <g id="Group_15" data-name="Group 15">
            <g id="Group_14" data-name="Group 14">
              <g id="Group_13" data-name="Group 13">
                <path id="Path_5" data-name="Path 5" d="M49.829,4.622H9.775a1.255,1.255,0,0,0-.344.075L8.447,1.638A2.431,2.431,0,0,0,6.11,0H1.222A1.19,1.19,0,0,0,0,1.155V3.466A1.19,1.19,0,0,0,1.222,4.622H4.3l7.635,23.723L9.083,31.49a4.626,4.626,0,0,0-1.116,4.518,4.834,4.834,0,0,0,4.678,3.275H47.654a1.19,1.19,0,0,0,1.222-1.155V35.818a1.19,1.19,0,0,0-1.222-1.155H12.645l3.873-4.273a2.285,2.285,0,0,0,.243-.349H40.44a4.917,4.917,0,0,0,4.424-2.655L53.39,10.253a3.582,3.582,0,0,0,.373-1.583V8.343A3.833,3.833,0,0,0,49.829,4.622Z" fill="#fff"/>
                <circle id="Ellipse_9" data-name="Ellipse 9" cx="5.813" cy="5.813" r="5.813" transform="translate(9.364 42.191)" fill="#fff"/>
                <circle id="Ellipse_10" data-name="Ellipse 10" cx="5.813" cy="5.813" r="5.813" transform="translate(36.324 42.191)" fill="#fff"/>
              </g>
            </g>
          </g>
        </g>
      </g>
    </g>
  </g>
</svg>
